<svg width="50" height="50" viewBox="0 0 50 50" fill="none" xmlns="http://www.w3.org/2000/svg">
<rect width="50" height="50" rx="6" fill="#0B0F19"/>
<path d="M25.0288 48C24.6451 48 24.2998 47.875 23.9928 47.625C23.6859 47.4107 23.5324 47.0714 23.5324 46.6071V42.375C21.5372 42.2321 19.7338 41.7679 18.1223 40.9821C16.5492 40.1964 15.3022 39 14.3813 37.3929C13.4604 35.75 13 33.625 13 31.0179V14.4643C13 11.6786 13.5372 9.44643 14.6115 7.76786C15.6859 6.08928 17.1247 4.875 18.9281 4.125C20.7314 3.375 22.7458 3 24.9712 3C27.235 3 29.2686 3.375 31.0719 4.125C32.8753 4.875 34.3141 6.08928 35.3885 7.76786C36.4628 9.44643 37 11.6786 37 14.4643V31.0179C37 33.625 36.5396 35.75 35.6187 37.3929C34.6978 39 33.4508 40.1964 31.8777 40.9821C30.3046 41.7679 28.5012 42.2321 26.4676 42.375V46.6071C26.4676 47.0714 26.3141 47.4107 26.0072 47.625C25.7386 47.875 25.4125 48 25.0288 48ZM23.5324 39.0536V35.0893C23.5324 34.625 23.6859 34.3036 23.9928 34.125C24.2998 33.9107 24.6451 33.8036 25.0288 33.8036C25.4125 33.8036 25.7386 33.9107 26.0072 34.125C26.3141 34.3036 26.4676 34.625 26.4676 35.0893V39.0536C28.5779 38.8036 30.2086 38.0357 31.3597 36.75C32.5492 35.4286 33.1439 33.5179 33.1439 31.0179V14.4643C33.1439 11.6786 32.4149 9.625 30.9568 8.30357C29.5372 6.94643 27.542 6.26786 24.9712 6.26786C22.4005 6.26786 20.4053 6.94643 18.9856 8.30357C17.5659 9.625 16.8561 11.6786 16.8561 14.4643V31.0179C16.8561 33.5179 17.4317 35.4286 18.5827 36.75C19.7722 38.0714 21.4221 38.8393 23.5324 39.0536Z" fill="white"/>
</svg>
